<svg width="34" height="37" viewBox="0 0 34 37" fill="none" xmlns="http://www.w3.org/2000/svg">
<g id="&#240;&#159;&#166;&#134; icon &#34;bell&#34;">
<path id="Vector" d="M26.7596 12.7418C26.7596 10.0255 25.748 7.42046 23.9472 5.49976C22.1466 3.57904 19.7044 2.5 17.1579 2.5C14.6114 2.5 12.1691 3.57904 10.3685 5.49976C8.56781 7.42046 7.55621 10.0255 7.55621 12.7418C7.55621 24.6906 2.75537 28.1045 2.75537 28.1045H31.5604C31.5604 28.1045 26.7596 24.6906 26.7596 12.7418Z" stroke="black" stroke-width="4.08536" stroke-linecap="round" stroke-linejoin="round"/>
<path id="Vector_2" d="M19.9264 32.9053C19.645 33.3904 19.2413 33.793 18.7553 34.0727C18.2694 34.3526 17.7186 34.5 17.1579 34.5C16.5971 34.5 16.0463 34.3526 15.5605 34.0727C15.0746 33.793 14.6707 33.3904 14.3894 32.9053" stroke="black" stroke-width="4.08536" stroke-linecap="round" stroke-linejoin="round"/>
</g>
</svg>
