<svg width="37" height="37" viewBox="0 0 37 37" fill="none" xmlns="http://www.w3.org/2000/svg">
<g id="&#240;&#159;&#166;&#134; icon &#34;settings&#34;">
<path id="Vector" d="M18.5604 23.3C21.2115 23.3 23.3604 21.1511 23.3604 18.5C23.3604 15.849 21.2115 13.7 18.5604 13.7C15.9094 13.7 13.7604 15.849 13.7604 18.5C13.7604 21.1511 15.9094 23.3 18.5604 23.3Z" stroke="black" stroke-width="4.30327" stroke-linecap="round" stroke-linejoin="round"/>
<path id="Vector_2" d="M30.7563 15.9326L28.9999 11.6917L31.3604 8.9L28.1604 5.7L25.3839 8.07272L21.0529 6.29158L20.0569 2.5H16.93L15.919 6.34181L11.6875 8.12554L8.96042 5.7L5.76042 8.9L8.08582 11.7622L6.35642 16.0141L2.56042 16.9V20.1L6.4022 21.1488L8.18562 25.3795L5.76042 28.1L8.96042 31.3L11.8263 28.9645L15.9956 30.6797L16.9604 34.5H20.1604L21.1276 30.6811L25.3686 28.9248C26.0755 29.4301 28.1604 31.3 28.1604 31.3L31.3604 28.1L28.9859 25.299L30.7427 21.0568L34.5603 20.0635L34.5604 16.9L30.7563 15.9326Z" stroke="black" stroke-width="4.30327" stroke-linecap="round" stroke-linejoin="round"/>
</g>
</svg>
